HIERARCHY
ROOT Hips
{
	OFFSET 0.000000 104.274902 0.000000
	CHANNELS 6 Xposition Yposition Zposition Xrotation Yrotation Zrotation
	JOINT Spine
	{
		OFFSET 0.000000 10.181549 0.131524
		CHANNELS 6 Xposition Yposition Zposition Xrotation Yrotation Zrotation
		JOINT Spine1
		{
			OFFSET 0.000000 9.893990 -1.470706
			CHANNELS 3 Xrotation Yrotation Zrotation
			JOINT Spine2
			{
				OFFSET 0.000000 9.220787 -1.370637
				CHANNELS 3 Xrotation Yrotation Zrotation
				JOINT Neck
				{
					OFFSET 0.000000 16.740372 -2.049022
					CHANNELS 6 Xposition Yposition Zposition Xrotation Yrotation Zrotation
					JOINT Head
					{
						OFFSET 0.000000 9.617859 1.684976
						CHANNELS 6 Xposition Yposition Zposition Xrotation Yrotation Zrotation
						JOINT HeadTop_End
						{
							OFFSET 0.000000 22.037384 7.501072
							CHANNELS 6 Xposition Yposition Zposition Xrotation Yrotation Zrotation
							End Site
							{
								OFFSET 0.000000 23.106567 -2.828246
							}
						}
					}
				}
				JOINT RightShoulder
				{
					OFFSET -4.570000 11.014877 -2.160840
					CHANNELS 6 Xposition Yposition Zposition Xrotation Yrotation Zrotation
					JOINT RightArm
					{
						OFFSET -10.592867 -0.524796 -2.232105
						CHANNELS 3 Xrotation Yrotation Zrotation
						JOINT RightForeArm
						{
							OFFSET -27.841497 0.000000 -0.000002
							CHANNELS 3 Xrotation Yrotation Zrotation
							JOINT RightHand
							{
								OFFSET -28.328812 0.000000 -0.000001
								CHANNELS 3 Xrotation Yrotation Zrotation
								JOINT RightHandThumb1
								{
									OFFSET -2.464798 -1.573990 2.681911
									CHANNELS 6 Xposition Yposition Zposition Xrotation Yrotation Zrotation
									JOINT RightHandThumb2
									{
										OFFSET -3.244781 -1.873383 1.873376
										CHANNELS 3 Xrotation Yrotation Zrotation
										JOINT RightHandThumb3
										{
											OFFSET -2.646263 -1.527817 1.527818
											CHANNELS 6 Xposition Yposition Zposition Xrotation Yrotation Zrotation
											JOINT RightHandThumb4
											{
												OFFSET -1.994591 -1.151581 1.151575
												CHANNELS 6 Xposition Yposition Zposition Xrotation Yrotation Zrotation
												End Site
												{
													OFFSET -1.860176 -1.142715 1.365483
												}
											}
										}
									}
								}
								JOINT RightHandIndex1
								{
									OFFSET -9.108299 -0.517883 2.259803
									CHANNELS 6 Xposition Yposition Zposition Xrotation Yrotation Zrotation
									JOINT RightHandIndex2
									{
										OFFSET -3.699997 0.000000 0.000000
										CHANNELS 3 Xrotation Yrotation Zrotation
										JOINT RightHandIndex3
										{
											OFFSET -2.850006 0.000000 0.000000
											CHANNELS 3 Xrotation Yrotation Zrotation
											JOINT RightHandIndex4
											{
												OFFSET -2.772194 0.000000 0.000000
												CHANNELS 3 Xrotation Yrotation Zrotation
												End Site
												{
													OFFSET -2.772202 0.000000 -0.000484
												}
											}
										}
									}
								}
								JOINT RightHandMiddle1
								{
									OFFSET -9.532501 0.000000 -0.000000
									CHANNELS 6 Xposition Yposition Zposition Xrotation Yrotation Zrotation
									JOINT RightHandMiddle2
									{
										OFFSET -3.699997 0.000000 0.000000
										CHANNELS 3 Xrotation Yrotation Zrotation
										JOINT RightHandMiddle3
										{
											OFFSET -2.949997 0.000000 0.000000
											CHANNELS 3 Xrotation Yrotation Zrotation
											JOINT RightHandMiddle4
											{
												OFFSET -2.946594 0.000000 0.000000
												CHANNELS 3 Xrotation Yrotation Zrotation
												End Site
												{
													OFFSET -2.946602 0.000000 -0.000982
												}
											}
										}
									}
								}
								JOINT RightHandRing1
								{
									OFFSET -9.103600 -0.043106 -1.865100
									CHANNELS 6 Xposition Yposition Zposition Xrotation Yrotation Zrotation
									JOINT RightHandRing2
									{
										OFFSET -3.379303 0.000000 0.000000
										CHANNELS 3 Xrotation Yrotation Zrotation
										JOINT RightHandRing3
										{
											OFFSET -2.889694 0.000000 0.000000
											CHANNELS 3 Xrotation Yrotation Zrotation
											JOINT RightHandRing4
											{
												OFFSET -2.638802 0.000000 0.000000
												CHANNELS 3 Xrotation Yrotation Zrotation
												End Site
												{
													OFFSET -2.638802 0.000000 0.004218
												}
											}
										}
									}
								}
								JOINT RightHandPinky1
								{
									OFFSET -8.076698 -0.486725 -3.806299
									CHANNELS 6 Xposition Yposition Zposition Xrotation Yrotation Zrotation
									JOINT RightHandPinky2
									{
										OFFSET -3.600006 0.000000 0.000000
										CHANNELS 3 Xrotation Yrotation Zrotation
										JOINT RightHandPinky3
										{
											OFFSET -2.099998 0.000000 0.000000
											CHANNELS 3 Xrotation Yrotation Zrotation
											JOINT RightHandPinky4
											{
												OFFSET -2.115791 0.000000 0.000000
												CHANNELS 3 Xrotation Yrotation Zrotation
												End Site
												{
													OFFSET -2.115799 0.000000 0.000174
												}
											}
										}
									}
								}
							}
						}
					}
				}
				JOINT LeftShoulder
				{
					OFFSET 4.570400 11.014679 -2.160816
					CHANNELS 6 Xposition Yposition Zposition Xrotation Yrotation Zrotation
					JOINT LeftArm
					{
						OFFSET 10.592373 -0.524597 -2.232116
						CHANNELS 3 Xrotation Yrotation Zrotation
						JOINT LeftForeArm
						{
							OFFSET 27.841488 0.000000 0.000001
							CHANNELS 3 Xrotation Yrotation Zrotation
							JOINT LeftHand
							{
								OFFSET 28.328808 0.000000 -0.000000
								CHANNELS 3 Xrotation Yrotation Zrotation
								JOINT LeftHandThumb1
								{
									OFFSET 2.466103 -1.576202 2.681698
									CHANNELS 6 Xposition Yposition Zposition Xrotation Yrotation Zrotation
									JOINT LeftHandThumb2
									{
										OFFSET 3.243317 -1.872528 1.872530
										CHANNELS 3 Xrotation Yrotation Zrotation
										JOINT LeftHandThumb3
										{
											OFFSET 2.647881 -1.528763 1.528754
											CHANNELS 6 Xposition Yposition Zposition Xrotation Yrotation Zrotation
											JOINT LeftHandThumb4
											{
												OFFSET 1.998924 -1.154083 1.154080
												CHANNELS 6 Xposition Yposition Zposition Xrotation Yrotation Zrotation
												End Site
												{
													OFFSET 1.884041 -1.149155 1.337651
												}
											}
										}
									}
								}
								JOINT LeftHandIndex1
								{
									OFFSET 9.109299 -0.518005 2.259900
									CHANNELS 6 Xposition Yposition Zposition Xrotation Yrotation Zrotation
									JOINT LeftHandIndex2
									{
										OFFSET 3.699997 0.000000 0.000000
										CHANNELS 3 Xrotation Yrotation Zrotation
										JOINT LeftHandIndex3
										{
											OFFSET 2.850006 0.000000 0.000000
											CHANNELS 3 Xrotation Yrotation Zrotation
											JOINT LeftHandIndex4
											{
												OFFSET 2.774895 0.000000 0.000000
												CHANNELS 3 Xrotation Yrotation Zrotation
												End Site
												{
													OFFSET 2.774902 0.000000 -0.000072
												}
											}
										}
									}
								}
								JOINT LeftHandMiddle1
								{
									OFFSET 9.533401 0.000000 0.000000
									CHANNELS 6 Xposition Yposition Zposition Xrotation Yrotation Zrotation
									JOINT LeftHandMiddle2
									{
										OFFSET 3.699997 0.000000 0.000000
										CHANNELS 3 Xrotation Yrotation Zrotation
										JOINT LeftHandMiddle3
										{
											OFFSET 2.949997 0.000000 0.000000
											CHANNELS 3 Xrotation Yrotation Zrotation
											JOINT LeftHandMiddle4
											{
												OFFSET 2.952896 0.000000 0.000000
												CHANNELS 3 Xrotation Yrotation Zrotation
												End Site
												{
													OFFSET 2.952904 0.000000 0.000165
												}
											}
										}
									}
								}
								JOINT LeftHandRing1
								{
									OFFSET 9.104500 -0.042999 -1.865101
									CHANNELS 6 Xposition Yposition Zposition Xrotation Yrotation Zrotation
									JOINT LeftHandRing2
									{
										OFFSET 3.149994 0.000000 0.000000
										CHANNELS 3 Xrotation Yrotation Zrotation
										JOINT LeftHandRing3
										{
											OFFSET 2.950005 0.000000 0.000000
											CHANNELS 3 Xrotation Yrotation Zrotation
											JOINT LeftHandRing4
											{
												OFFSET 2.644302 0.000000 0.000000
												CHANNELS 3 Xrotation Yrotation Zrotation
												End Site
												{
													OFFSET 2.644302 0.000000 0.000083
												}
											}
										}
									}
								}
								JOINT LeftHandPinky1
								{
									OFFSET 8.077805 -0.486893 -3.806302
									CHANNELS 6 Xposition Yposition Zposition Xrotation Yrotation Zrotation
									JOINT LeftHandPinky2
									{
										OFFSET 3.600006 0.000000 0.000000
										CHANNELS 3 Xrotation Yrotation Zrotation
										JOINT LeftHandPinky3
										{
											OFFSET 2.099998 0.000000 0.000000
											CHANNELS 3 Xrotation Yrotation Zrotation
											JOINT LeftHandPinky4
											{
												OFFSET 2.125496 0.000000 0.000000
												CHANNELS 3 Xrotation Yrotation Zrotation
												End Site
												{
													OFFSET 2.125504 0.000000 -0.001254
												}
											}
										}
									}
								}
							}
						}
					}
				}
			}
		}
	}
	JOINT RightUpLeg
	{
		OFFSET -8.207800 -6.751701 -1.599544
		CHANNELS 6 Xposition Yposition Zposition Xrotation Yrotation Zrotation
		JOINT RightLeg
		{
			OFFSET 0.000004 -44.370152 0.345934
			CHANNELS 3 Xrotation Yrotation Zrotation
			JOINT RightFoot
			{
				OFFSET 0.000004 -44.423664 -3.043535
				CHANNELS 3 Xrotation Yrotation Zrotation
				JOINT RightToeBase
				{
					OFFSET 0.000001 -8.728691 10.710592
					CHANNELS 3 Xrotation Yrotation Zrotation
					JOINT RightToe_End
					{
						OFFSET 0.000000 -0.000665 9.278101
						CHANNELS 3 Xrotation Yrotation Zrotation
						End Site
						{
							OFFSET 0.000000 -0.000665 9.278103
						}
					}
				}
			}
		}
	}
	JOINT LeftUpLeg
	{
		OFFSET 8.207800 -6.751701 -1.599544
		CHANNELS 6 Xposition Yposition Zposition Xrotation Yrotation Zrotation
		JOINT LeftLeg
		{
			OFFSET 0.000004 -44.370037 0.346940
			CHANNELS 3 Xrotation Yrotation Zrotation
			JOINT LeftFoot
			{
				OFFSET 0.000004 -44.423611 -3.044388
				CHANNELS 3 Xrotation Yrotation Zrotation
				JOINT LeftToeBase
				{
					OFFSET 0.000001 -8.728690 10.710592
					CHANNELS 3 Xrotation Yrotation Zrotation
					JOINT LeftToe_End
					{
						OFFSET 0.000000 -0.000680 9.278101
						CHANNELS 3 Xrotation Yrotation Zrotation
						End Site
						{
							OFFSET 0.000000 -0.000680 9.278101
						}
					}
				}
			}
		}
	}
}
MOTION
Frames: 4
Frame Time: 0.033333
4.135387 102.521439 98.888351 -1.769110 5.774995 2.640349 -0.000000 10.181560 0.131522 5.869383 -2.905874 -0.808541 0.450117 -0.778382 0.038075 0.450696 -0.777882 0.042102 -0.000000 16.740364 -2.049004 -1.227025 -0.128078 -0.257358 -0.000001 9.617870 1.684991 -3.409996 -3.057189 -2.176882 0.000000 22.037384 7.501087 -0.000000 -0.000000 -0.000000 -4.570008 11.014901 -2.160828 0.828193 -0.493723 16.628403 6.571150 2.080072 64.251528 -0.000008 10.443394 0.000001 8.321999 2.662151 2.714895 -2.464804 -1.573999 2.681912 -8.879578 4.825543 -8.712509 13.897011 -23.167242 -4.852848 -2.646259 -1.527815 1.527825 -5.442616 20.596174 -16.944945 -1.994591 -1.151585 1.151566 -0.000003 0.000002 0.000000 -9.108296 -0.517876 2.259800 0.189658 -3.202632 28.507482 1.491505 -3.417564 47.145295 0.475960 -2.052855 26.104751 -0.000001 0.000002 0.000000 -9.532507 0.000017 -0.000003 2.514464 -6.756009 42.892041 1.401097 -3.331538 45.609343 0.354507 -1.783888 22.477606 -0.000000 -0.000001 0.000001 -9.103593 -0.043102 -1.865101 5.906809 -9.229516 50.946917 1.193940 -3.115622 41.926754 0.444846 -1.988145 25.222311 -0.000001 -0.000003 0.000000 -8.076695 -0.486709 -3.806304 2.970160 -7.751807 53.062445 1.482724 -3.409408 46.997774 0.811352 -2.628551 34.302433 0.000001 0.000001 0.000000 4.570403 11.014717 -2.160800 0.391416 -5.482226 -19.957038 -5.515483 -16.329686 -59.853521 -0.000002 -14.647037 0.000021 -0.311529 -9.639612 11.084118 2.466113 -1.576179 2.681710 -2.832540 -1.477244 13.645895 19.287068 19.787690 -7.007188 2.647882 -1.528761 1.528740 -18.690135 -19.070624 13.080642 1.998935 -1.154061 1.154072 0.000001 -0.000002 0.000002 9.109294 -0.518005 2.259906 -0.813118 1.374946 -22.414965 0.440255 2.230072 -22.333641 0.061818 0.849743 -8.321689 -0.000000 0.000002 0.000002 9.533411 0.000008 0.000007 1.393274 6.174833 -31.491096 0.513966 2.401576 -24.158046 0.179712 1.441431 -14.214067 0.000001 -0.000000 0.000001 9.104493 -0.042998 -1.865094 2.849525 8.386150 -32.711395 1.064713 3.369422 -35.065501 0.076523 0.944884 -9.261417 -0.000001 0.000000 0.000001 8.077813 -0.486869 -3.806300 1.448366 6.351883 -29.243175 0.408947 2.152396 -21.515402 0.159829 1.360547 -13.400787 -0.000003 0.000000 0.000003 -8.207801 -6.751711 -1.599547 -25.883635 -5.269923 -5.763399 42.318486 -9.932389 -2.418115 -0.932088 -0.365179 4.402847 -4.786615 0.000004 0.000003 -0.000000 -0.000000 0.000000 8.207800 -6.751707 -1.599544 -2.875620 5.563434 -6.525697 15.709281 -5.028350 0.006429 -8.380573 -0.749517 5.452809 -2.820936 0.000004 -0.000001 0.000000 -0.000000 0.000000 
4.068534 102.245987 103.306686 -1.209385 6.836945 2.783107 -0.000002 10.181554 0.131523 5.687186 -3.893528 -0.795887 0.468943 -1.035947 -0.010057 0.470860 -1.034359 -0.004425 -0.000000 16.740372 -2.049007 -1.299512 -0.067355 -0.283147 -0.000001 9.617853 1.684955 -3.909392 -2.946938 -1.914664 -0.000000 22.037369 7.501076 -0.000000 -0.000000 -0.000000 -4.569999 11.014877 -2.160826 0.841654 -0.717003 16.611155 8.549629 0.396383 64.889249 -0.000003 10.230377 0.000012 8.905783 2.350753 3.411421 -2.464812 -1.574004 2.681914 -8.879572 4.825540 -8.712509 13.659360 -22.818381 -5.070436 -2.646262 -1.527816 1.527813 -5.421265 20.653582 -17.081910 -1.994584 -1.151584 1.151562 -0.000001 -0.000002 0.000000 -9.108306 -0.517876 2.259811 0.176584 -3.152258 27.114645 1.400466 -3.330924 45.598517 0.440217 -1.978274 25.088188 -0.000002 0.000001 -0.000001 -9.532527 0.000014 0.000010 2.533975 -6.824984 41.893047 1.351551 -3.282389 44.750529 0.332513 -1.729812 21.760406 0.000003 -0.000001 0.000001 -9.103590 -0.043098 -1.865092 5.935891 -9.329326 50.316132 1.161218 -3.078861 41.321142 0.426283 -1.948254 24.681532 -0.000002 -0.000001 -0.000000 -8.076721 -0.486714 -3.806294 3.030949 -7.920177 52.238448 1.451078 -3.379660 46.463427 0.789578 -2.596398 33.824852 -0.000001 -0.000002 0.000003 4.570399 11.014702 -2.160807 0.334006 -6.179707 -19.809879 -8.101693 -19.745075 -57.444466 0.000015 -17.050032 0.000013 -1.552201 -11.448375 11.464768 2.466105 -1.576178 2.681699 -2.832544 -1.477248 13.645888 19.240308 19.689041 -6.943873 2.647882 -1.528742 1.528743 -18.711940 -19.064641 13.063563 1.998936 -1.154075 1.154076 -0.000003 -0.000002 -0.000005 9.109299 -0.518010 2.259891 -0.813068 1.369470 -22.379854 0.443809 2.238717 -22.424998 0.062461 0.854295 -8.366669 -0.000000 0.000002 0.000001 9.533399 0.000012 -0.000003 1.391788 6.175117 -31.400494 0.513329 2.400134 -24.142658 0.179530 1.440755 -14.207247 0.000004 0.000001 -0.000000 9.104506 -0.043001 -1.865099 2.819023 8.352660 -32.587266 1.063879 3.368230 -35.051298 0.075342 0.937661 -9.189992 0.000000 -0.000001 0.000000 8.077807 -0.486890 -3.806307 1.419413 6.313252 -28.961416 0.403974 2.139671 -21.381771 0.156243 1.345518 -13.249933 -0.000001 -0.000003 -0.000003 -8.207801 -6.751695 -1.599543 -28.438044 -5.635800 -6.658813 32.738227 -9.948930 -2.110894 -0.502833 -1.641974 5.191860 -4.622603 -0.000007 -0.000001 0.000000 -0.000000 -0.000000 8.207798 -6.751694 -1.599546 -0.411363 5.739035 -6.213898 15.248273 -6.524211 -0.104440 -10.431160 -0.785210 5.369300 -3.140035 0.000001 -0.000001 0.000000 -0.000000 0.000000 
4.009897 101.669838 107.620773 -0.341724 7.770191 3.024028 -0.000001 10.181564 0.131526 5.188754 -4.636781 -0.852319 0.413833 -1.231131 -0.055208 0.417215 -1.229113 -0.049058 -0.000000 16.740385 -2.049025 -1.334270 -0.019722 -0.347155 -0.000000 9.617846 1.684978 -4.234122 -3.010982 -1.769127 0.000001 22.037354 7.501086 -0.000000 0.000000 -0.000000 -4.570002 11.014891 -2.160850 0.853539 -1.036864 16.410180 10.341859 -1.216118 65.474419 -0.000004 9.956551 0.000018 10.234610 1.956032 4.039978 -2.464795 -1.574000 2.681933 -8.879574 4.825541 -8.712510 13.581189 -22.703166 -5.141840 -2.646280 -1.527806 1.527822 -5.418977 20.398312 -16.862783 -1.994588 -1.151594 1.151588 0.000001 0.000001 -0.000001 -9.108307 -0.517877 2.259825 0.199004 -3.164684 25.438047 1.306827 -3.236727 43.964066 0.385642 -1.857340 23.457919 -0.000001 -0.000003 -0.000000 -9.532511 -0.000002 0.000021 2.513161 -6.885245 40.310066 1.269537 -3.197670 43.299458 0.292917 -1.627136 20.408397 0.000000 0.000003 -0.000000 -9.103594 -0.043109 -1.865080 5.908184 -9.471743 48.998063 1.102576 -3.010936 40.217260 0.390957 -1.869534 23.621303 0.000001 0.000000 0.000001 -8.076699 -0.486715 -3.806281 3.059752 -8.052626 51.135270 1.404086 -3.334468 45.660873 0.754380 -2.543114 33.039701 0.000000 -0.000001 0.000001 4.570396 11.014690 -2.160828 0.260147 -6.985277 -19.872914 -10.292061 -22.578628 -54.989204 -0.000005 -19.407626 -0.000024 -1.627859 -12.304267 12.170759 2.466105 -1.576177 2.681689 -2.832539 -1.477246 13.645893 19.245834 19.699985 -6.952360 2.647894 -1.528744 1.528767 -18.457512 -18.742042 12.801031 1.998931 -1.154081 1.154094 0.000005 -0.000003 0.000001 9.109295 -0.518014 2.259891 -0.822347 1.379318 -22.583476 0.448964 2.251151 -22.556452 0.062165 0.852287 -8.346923 0.000003 0.000003 0.000002 9.533394 -0.000001 -0.000013 1.405566 6.191871 -31.587511 0.519834 2.414614 -24.297848 0.183719 1.457235 -14.373196 -0.000001 0.000002 0.000001 9.104488 -0.043001 -1.865101 2.779179 8.281195 -32.681789 1.081847 3.393668 -35.356119 0.077228 0.949198 -9.303968 -0.000001 0.000000 -0.000001 8.077791 -0.486892 -3.806306 1.412259 6.303982 -28.882459 0.407087 2.147659 -21.465688 0.157105 1.349068 -13.285597 0.000002 0.000001 0.000000 -8.207803 -6.751708 -1.599537 -30.166053 -5.871969 -7.559180 21.368602 -9.988665 -1.807830 0.396188 -3.304846 5.752683 -4.597908 0.000002 -0.000002 0.000000 0.000001 0.000000 8.207800 -6.751690 -1.599545 1.341707 5.709201 -6.064068 15.422586 -7.603580 -0.073450 -12.751182 -0.812656 5.199157 -3.404301 -0.000000 -0.000002 0.000000 -0.000000 0.000000 
3.904700 100.804810 112.071571 0.484144 8.200344 3.503137 -0.000002 10.181564 0.131532 4.505078 -4.967197 -1.227277 0.451596 -1.307298 -0.081512 0.456488 -1.304887 -0.078583 0.000000 16.740370 -2.049022 -1.404287 -0.001204 -0.410772 -0.000000 9.617841 1.684973 -4.538773 -3.220930 -1.745582 -0.000000 22.037384 7.501071 -0.000000 -0.000000 0.000000 -4.570000 11.014889 -2.160844 0.875354 -1.535090 16.214502 11.732710 -2.780098 65.786094 -0.000003 9.563491 0.000008 12.560151 0.901255 4.731772 -2.464812 -1.574002 2.681906 -8.879573 4.825540 -8.712509 13.439991 -22.492047 -5.271332 -2.646272 -1.527808 1.527810 -5.405236 19.910341 -16.433833 -1.994604 -1.151591 1.151580 0.000000 0.000003 0.000002 -9.108316 -0.517877 2.259806 0.248232 -3.212839 23.503099 1.221842 -3.146361 42.437437 0.321472 -1.701892 21.391403 0.000001 0.000003 0.000001 -9.532518 0.000010 -0.000002 2.488821 -6.980814 38.236526 1.163764 -3.081725 41.368342 0.241406 -1.481431 18.509729 -0.000001 0.000003 0.000000 -9.103609 -0.043086 -1.865095 5.855799 -9.659882 47.238589 1.012722 -2.901476 38.474982 0.338591 -1.744958 21.960738 0.000001 -0.000002 0.000001 -8.076703 -0.486706 -3.806305 3.101923 -8.229739 49.458660 1.324537 -3.254950 44.276817 0.690791 -2.442681 31.577829 0.000002 -0.000001 0.000005 4.570401 11.014675 -2.160827 0.200846 -7.596315 -19.970423 -12.355419 -25.145743 -52.978485 -0.000008 -21.427876 -0.000008 -2.973129 -11.836095 13.323821 2.466098 -1.576179 2.681682 -2.832542 -1.477248 13.645888 19.251616 19.712264 -6.960055 2.647883 -1.528727 1.528762 -18.196143 -18.421457 12.535184 1.998935 -1.154086 1.154074 0.000001 0.000002 -0.000001 9.109306 -0.518010 2.259886 -0.843151 1.404907 -23.058903 0.458727 2.274508 -22.803961 0.063365 0.860273 -8.425651 -0.000000 0.000003 0.000003 9.533391 0.000006 -0.000010 1.450462 6.250150 -32.043102 0.531796 2.440896 -24.580043 0.190651 1.483940 -14.642616 0.000002 0.000001 0.000001 9.104514 -0.042998 -1.865111 2.749075 8.201440 -33.011554 1.110459 3.433561 -35.836520 0.080747 0.970493 -9.514796 0.000002 0.000000 -0.000000 8.077804 -0.486885 -3.806317 1.428509 6.326617 -29.024517 0.418824 2.177256 -21.776743 0.161441 1.367241 -13.467984 0.000003 0.000004 0.000003 -8.207803 -6.751694 -1.599542 -31.669060 -5.614347 -8.233468 14.388490 -10.037900 -1.975283 0.324570 -4.297154 7.559864 -4.215984 0.000004 -0.000001 0.000001 0.000000 -0.000000 8.207798 -6.751700 -1.599536 3.191387 5.670051 -6.152780 15.765200 -8.189443 -0.014230 -15.269229 -0.806207 4.938844 -3.829509 0.000000 0.000002 -0.000000 0.000000 0.000000 
